Coordinates
version=1
nRows=4
nColumns=107
inDegrees=yes

Units are S.I. units (second, meters, Newtons, ...)
If the header above contains a line with 'inDegrees', this indicates whether rotational values are in degrees (yes) or radians (no).

endheader
time	sternoclavicular_r2	sternoclavicular_r3	unrotscap_r3	unrotscap_r2	acromioclavicular_r2	acromioclavicular_r3	acromioclavicular_r1	unrothum_r1	unrothum_r3	unrothum_r2	elv_angle	shoulder_elv	shoulder1_r2	shoulder_rot	elbow_flexion	pro_sup	deviation	flexion	proximal_distal_r1	proximal_distal_r3	cmc_flexion	cmc_abduction	mp_flexion	ip_flexion	mcp2_flexion	mcp2_abduction	pm2_flexion	md2_flexion	mcp3_flexion	mcp3_abduction	pm3_flexion	md3_flexion	mcp4_flexion	mcp4_abduction	pm4_flexion	md4_flexion	mcp5_flexion	mcp5_abduction	pm5_flexion	md5_flexion	bicpt_tx	bicpt_ty	bicpt_tz	bicpt2_tx	bicpt2_ty	bicpt2_tz	ptpt_tx	ptpt_ty	ptpt_tz	FCUpt_tx	FCUpt_ty	FCUpt_tz	EDCpt_tx	EDCpt_ty	EDCpt_tz	APLpt_tx	APLpt_ty	APLpt_tz	FPLpt_tx	FPLpt_ty	FPLpt_tz	FPLpt2_tx	FPLpt2_ty	FPLpt2_tz	PEC1pt2_tx	PEC1pt2_ty	PEC1pt2_tz	PEC1pt3_tx	PEC1pt3_ty	PEC1pt3_tz	PEC2pt2_tx	PEC2pt2_ty	PEC2pt2_tz	PEC2pt3_tx	PEC2pt3_ty	PEC2pt3_tz	PEC3pt2_tx	PEC3pt2_ty	PEC3pt2_tz	PEC3pt3_tx	PEC3pt3_ty	PEC3pt3_tz	DELT2pt2a_tx	DELT2pt2a_ty	DELT2pt2a_tz	DELT2pt2_tx	DELT2pt2_ty	DELT2pt2_tz	LAT1pt2_tx	LAT1pt2_ty	LAT1pt2_tz	LAT1pt3_tx	LAT1pt3_ty	LAT1pt3_tz	LAT2pt2_tx	LAT2pt2_ty	LAT2pt2_tz	LAT2pt3_tx	LAT2pt3_ty	LAT2pt3_tz	LAT3pt2_tx	LAT3pt2_ty	LAT3pt2_tz	LAT3pt3_tx	LAT3pt3_ty	LAT3pt3_tz
      0.00000000	     -0.32127998	      0.13607903	     -0.13607903	      0.32127998	     -0.06505266	      0.52573272	      0.23631324	     -0.23631324	     -0.52573272	      0.06505266	     98.95006517	     76.06589037	     -1.72700443	    -22.27498230	     28.43713317	     19.82389549	     -0.00281294	     -1.02154463	     -0.00382381	     -0.51077231	     -0.83974610	     -2.96045474	    -34.24545688	    -37.19564620	     15.87783435	      6.87694480	     15.98194135	    -18.40639470	     74.59570149	      3.83550696	     84.13472472	     30.52223208	     60.18966336	     -6.98595481	     78.30467396	     22.68535474	      7.85201837	     -7.46784748	    -15.74463023	      4.93674870	      0.00084061	     -0.03085933	     -0.00482499	      0.01607107	     -0.01792509	     -0.00933848	      0.00608524	     -0.06584714	     -0.00164692	      0.00581175	     -0.18385698	     -0.00008991	     -0.00237886	      0.00062232	      0.00018095	      0.00017126	      0.00006850	      0.00034252	      0.00021921	      0.00065764	      0.00036992	     -0.00003006	      0.00002138	      0.00002566	      0.00249327	      0.00874758	      0.00608528	     -0.00815596	      0.01969263	     -0.01867842	      0.00249327	      0.00874758	      0.00608528	      0.00054937	      0.01825583	     -0.00959276	      0.00394411	      0.00486442	      0.01595828	      0.00000000	      0.00773787	      0.00000000	     -0.00714175	     -0.03300417	     -0.00637999	      0.01505443	     -0.00050282	     -0.00412809	     -0.00088744	      0.01487512	     -0.00608528	      0.00245101	      0.02146750	     -0.01774872	     -0.00595850	      0.01288895	     -0.00545139	     -0.01242411	      0.02721471	     -0.03046864	     -0.02332689	      0.01441027	     -0.00731078	     -0.01546674	      0.03144059	     -0.03807524
      0.03333333	     -0.32225139	      0.13649048	     -0.13649048	      0.32225139	     -0.06524935	      0.52732231	      0.23702775	     -0.23702775	     -0.52732231	      0.06524935	     98.78658497	     76.29588174	     -1.72415116	    -21.25016050	     28.37776953	     19.41388825	      0.00276171	     -1.00985324	      0.00374222	     -0.50492662	     -0.52362922	     -3.04226471	    -34.46657238	    -37.34234602	     15.27899199	      6.86233861	     17.07848253	    -19.43098436	     74.27166481	      4.61420025	     83.94085108	     32.16727632	     60.94568223	     -6.31302094	     77.02240717	     24.65302487	      8.09783212	     -7.43120017	    -15.72543166	      4.93619872	      0.00083865	     -0.03085253	     -0.00482390	      0.01605119	     -0.01790896	     -0.00937053	      0.00611553	     -0.06582755	     -0.00161389	      0.00577305	     -0.18386314	     -0.00008071	     -0.00232966	      0.00060822	      0.00017937	      0.00017919	      0.00007167	      0.00035837	      0.00022936	      0.00068808	      0.00038704	     -0.00001748	      0.00001324	      0.00001588	      0.00250081	      0.00877403	      0.00610368	     -0.00818062	      0.01975217	     -0.01873489	      0.00250081	      0.00877403	      0.00610368	      0.00055103	      0.01831103	     -0.00962177	      0.00395282	      0.00487913	      0.01597955	      0.00000000	      0.00778506	      0.00000000	     -0.00716334	     -0.03310396	     -0.00641917	      0.01448734	     -0.00047064	     -0.00374425	     -0.00089012	      0.01492010	     -0.00610368	      0.00245842	      0.02153241	     -0.01780239	     -0.00597652	      0.01292792	     -0.00546788	     -0.01246167	      0.02729699	     -0.03056077	     -0.02339742	      0.01445384	     -0.00733289	     -0.01551351	      0.03153566	     -0.03819036
      0.06666667	     -0.32218974	      0.13646437	     -0.13646437	      0.32218974	     -0.06523687	      0.52722142	      0.23698240	     -0.23698240	     -0.52722142	      0.06523687	     98.81414328	     76.28128375	     -1.72463215	    -21.23770399	     28.38771215	     19.41617452	      0.00271762	     -1.00982384	      0.00368215	     -0.50491192	     -0.52423105	     -3.04135002	    -34.46669039	    -37.34227002	     15.28119160	      6.86199473	     17.07900154	    -19.43056531	     74.27122067	      4.61437717	     83.94081369	     32.16705533	     60.94779222	     -6.31271501	     77.02241762	     24.65293587	      8.09954244	     -7.43080280	    -15.72478520	      4.93624241	      0.00083898	     -0.03085367	     -0.00482408	      0.01605130	     -0.01791166	     -0.00937036	      0.00611536	     -0.06582766	     -0.00161408	      0.00577327	     -0.18386310	     -0.00008076	     -0.00232994	      0.00060830	      0.00017938	      0.00017920	      0.00007168	      0.00035841	      0.00022938	      0.00068814	      0.00038708	     -0.00001759	      0.00001326	      0.00001591	      0.00250033	      0.00877236	      0.00610251	     -0.00817906	      0.01974839	     -0.01873131	      0.00250033	      0.00877236	      0.00610251	      0.00055092	      0.01830752	     -0.00961993	      0.00395226	      0.00487820	      0.01597820	      0.00000000	      0.00778206	      0.00000000	     -0.00716197	     -0.03309763	     -0.00641668	      0.01448023	     -0.00047025	     -0.00373983	     -0.00088995	      0.01491724	     -0.00610251	      0.00245795	      0.02152829	     -0.01779898	     -0.00597537	      0.01292545	     -0.00546683	     -0.01245929	      0.02729177	     -0.03055492	     -0.02339295	      0.01445108	     -0.00733149	     -0.01551054	      0.03152962	     -0.03818305
      0.10000000	     -0.32254960	      0.13661679	     -0.13661679	      0.32254960	     -0.06530973	      0.52781029	      0.23724709	     -0.23724709	     -0.52781029	      0.06530973	     98.81916327	     76.36648494	     -1.72471976	    -21.08674537	     28.28549046	     18.99462287	     -0.00904030	     -1.02195776	     -0.01233571	     -0.51097888	     -1.06026497	     -1.88448608	    -34.45862406	    -36.84352702	     15.17914956	      6.56367201	     17.94683768	    -18.89333234	     74.19403050	      4.55304971	     84.16905838	     30.32734599	     61.79646007	     -6.46236862	     76.19368263	     24.56791468	      8.11802850	     -7.54324775	    -16.14897080	      4.94283098	      0.00083560	     -0.03084195	     -0.00482219	      0.01603046	     -0.01788389	     -0.00940307	      0.00614651	     -0.06580752	     -0.00158012	      0.00573353	     -0.18386938	     -0.00007117	     -0.00227935	      0.00059386	      0.00017765	      0.00017097	      0.00006839	      0.00034195	      0.00021885	      0.00065654	      0.00036930	     -0.00003972	      0.00002713	      0.00003256	      0.00250313	      0.00878215	      0.00610932	     -0.00818819	      0.01977045	     -0.01875223	      0.00250313	      0.00878215	      0.00610932	      0.00055154	      0.01832797	     -0.00963067	      0.00395549	      0.00488364	      0.01598606	      0.00000000	      0.00779957	      0.00000000	     -0.00716997	     -0.03313460	     -0.00643122	      0.01439547	     -0.00046555	     -0.00368469	     -0.00089094	      0.01493390	     -0.00610932	      0.00246070	      0.02155234	     -0.01781886	     -0.00598205	      0.01293989	     -0.00547294	     -0.01247320	      0.02732225	     -0.03058905	     -0.02341908	      0.01446722	     -0.00733967	     -0.01552787	      0.03156484	     -0.03822570
